<?xml version="1.0" encoding="iso-8859-1"?>
<!-- Generator: Adobe Illustrator 17.1.0, SVG Export Plug-In . SVG Version: 6.00 Build 0)  -->
<!DOCTYPE svg PUBLIC "-//W3C//DTD SVG 1.1//EN" "http://www.w3.org/Graphics/SVG/1.1/DTD/svg11.dtd">
<svg version="1.1" id="Capa_1" xmlns="http://www.w3.org/2000/svg" xmlns:xlink="http://www.w3.org/1999/xlink" x="0px" y="0px"
	 viewBox="0 0 294 294" style="enable-background:new 0 0 294 294;" xml:space="preserve">
<path d="M163.833,65h-148.5C7.049,65,0,71.716,0,80v94.611v7.944C0,190.84,7.049,198,15.333,198H61.98L60,214H48.333
	c-8.284,0-15,6.716-15,15s6.716,15,15,15h83c8.284,0,15-6.716,15-15s-6.716-15-15-15h-12.152l-1.986-16h46.638
	c8.284,0,14.167-7.16,14.167-15.444v-7.944V80C178,71.716,172.117,65,163.833,65z M30,95h118v65H30V95z M294,64
	c0-8.284-6.716-15-15-15h-66c-8.284,0-15,6.716-15,15v166c0,8.284,6.716,15,15,15h66c8.284,0,15-6.716,15-15V64z M246.833,210.5
	c-9.113,0-16.5-7.387-16.5-16.5c0-9.113,7.387-16.5,16.5-16.5s16.5,7.387,16.5,16.5C263.333,203.113,255.946,210.5,246.833,210.5z
	 M279,128h-66v-16h66V128z M279,95h-66V79h66V95z"/>
<g>
</g>
<g>
</g>
<g>
</g>
<g>
</g>
<g>
</g>
<g>
</g>
<g>
</g>
<g>
</g>
<g>
</g>
<g>
</g>
<g>
</g>
<g>
</g>
<g>
</g>
<g>
</g>
<g>
</g>
</svg>
