<?xml version="1.0" encoding="iso-8859-1"?>
<!-- Generator: Adobe Illustrator 17.1.0, SVG Export Plug-In . SVG Version: 6.00 Build 0)  -->
<!DOCTYPE svg PUBLIC "-//W3C//DTD SVG 1.1//EN" "http://www.w3.org/Graphics/SVG/1.1/DTD/svg11.dtd">
<svg version="1.1" id="Capa_1" xmlns="http://www.w3.org/2000/svg" xmlns:xlink="http://www.w3.org/1999/xlink" x="0px" y="0px"
	 viewBox="0 0 487.881 487.881" style="enable-background:new 0 0 487.881 487.881;" xml:space="preserve">
<path d="M430.011,0H69.891c-2.761,0-5,2.238-5,5v20.667C46.348,28.346,32.87,38.962,32.87,52.025
	c0,12.865,13.281,23.621,32.021,26.351v13.302c-18.542,2.679-32.021,13.294-32.021,26.358c0,12.866,13.281,23.622,32.021,26.35
	v13.303c-18.542,2.678-32.021,13.293-32.021,26.357c0,12.865,13.281,23.621,32.021,26.351v13.302
	c-18.542,2.679-32.021,13.294-32.021,26.358c0,12.865,13.281,23.621,32.021,26.351v13.302
	c-18.542,2.679-32.021,13.294-32.021,26.358c0,12.866,13.281,23.622,32.021,26.35v13.303c-18.542,2.679-32.021,13.294-32.021,26.358
	c0,12.866,13.281,23.622,32.021,26.35v9.287v48.453v16.712c0,2.762,2.239,5,5,5h360.12c13.785,0,25-11.215,25-25v-65.165v-11.817V25
	C455.011,11.215,443.796,0,430.011,0z M140.915,10v359.692c0,2.762,2.239,5,5,5s5-2.238,5-5V10h279.096c8.271,0,15,6.729,15,15
	v360.898v11.817c0,8.271-6.729,15-15,15h-1.721H150.915v-8.001c0-2.762-2.239-5-5-5s-5,2.238-5,5v8.001H74.891v-47.645
	c5.102,0.066,9.731,0.787,13.754,1.972c-0.773,2.295-1.199,4.749-1.199,7.302c0,12.64,10.283,22.922,22.922,22.922
	s22.922-10.282,22.922-22.922s-10.283-22.923-22.922-22.923c-6.398,0-12.189,2.638-16.351,6.879
	c-5.66-1.999-12.158-3.15-19.126-3.229V299.06c5.102,0.066,9.731,0.787,13.754,1.972c-0.773,2.295-1.199,4.749-1.199,7.302
	c0,12.64,10.283,22.922,22.922,22.922s22.922-10.282,22.922-22.922s-10.283-22.923-22.922-22.923
	c-6.398,0-12.189,2.638-16.351,6.879c-5.66-1.999-12.158-3.15-19.126-3.229v-56.012c5.102,0.066,9.731,0.787,13.754,1.972
	c-0.774,2.295-1.199,4.749-1.199,7.302c0,12.64,10.283,22.923,22.922,22.923s22.922-10.283,22.922-22.923
	s-10.283-22.922-22.922-22.922c-6.398,0-12.189,2.637-16.351,6.878c-5.66-1.999-12.158-3.15-19.127-3.229V167.04
	c5.102,0.066,9.731,0.787,13.754,1.972c-0.773,2.295-1.199,4.748-1.199,7.301c0,12.64,10.283,22.923,22.922,22.923
	s22.922-10.283,22.922-22.923s-10.283-22.922-22.922-22.922c-6.398,0-12.189,2.637-16.352,6.879
	c-5.66-1.999-12.158-3.15-19.126-3.229v-56.012c5.102,0.066,9.731,0.787,13.754,1.972c-0.773,2.295-1.199,4.749-1.199,7.302
	c0,12.64,10.283,22.922,22.922,22.922s22.922-10.282,22.922-22.922S123.008,87.38,110.368,87.38c-6.398,0-12.189,2.638-16.351,6.879
	c-5.66-1.999-12.158-3.15-19.126-3.229V35.018c5.102,0.066,9.731,0.787,13.754,1.972c-0.773,2.295-1.199,4.749-1.199,7.302
	c0,12.64,10.283,22.922,22.922,22.922s22.922-10.282,22.922-22.922s-10.283-22.923-22.922-22.923
	c-6.398,0-12.189,2.638-16.351,6.879c-5.66-1.999-12.158-3.15-19.126-3.229V10H140.915z M74.891,422.716h70.956
	c0.023,0,0.045,0.007,0.068,0.007s0.045-0.007,0.068-0.007H423.29v38.453H74.891V422.716z M103.872,363.192
	c1.911-1.118,4.127-1.77,6.496-1.77c7.125,0,12.922,5.797,12.922,12.923c0,5.544-3.516,10.27-8.43,12.1
	c0.344-1.436,0.522-2.895,0.522-4.367C115.382,374.657,111.027,368.029,103.872,363.192z M105.382,382.078
	c0,1.267-0.293,2.536-0.854,3.778c-4.196-2.137-7.083-6.489-7.083-11.512c0-1.098,0.153-2.159,0.412-3.178
	C102.656,374.299,105.382,378.251,105.382,382.078z M103.872,297.181c1.911-1.118,4.127-1.77,6.496-1.77
	c7.125,0,12.922,5.797,12.922,12.923c0,5.544-3.516,10.27-8.43,12.1c0.344-1.436,0.522-2.895,0.522-4.367
	C115.382,308.646,111.027,302.018,103.872,297.181z M105.382,316.067c0,1.267-0.293,2.536-0.854,3.778
	c-4.196-2.137-7.083-6.489-7.083-11.512c0-1.098,0.153-2.159,0.412-3.178C102.656,308.288,105.382,312.24,105.382,316.067z
	 M103.873,231.171c1.911-1.117,4.126-1.769,6.495-1.769c7.125,0,12.922,5.797,12.922,12.922c0,5.545-3.516,10.271-8.431,12.101
	c0.345-1.436,0.522-2.896,0.522-4.368C115.382,242.636,111.027,236.008,103.873,231.171z M105.382,250.057
	c0,1.266-0.293,2.536-0.854,3.779c-4.196-2.137-7.083-6.49-7.083-11.513c0-1.098,0.153-2.159,0.412-3.178
	C102.656,242.277,105.382,246.229,105.382,250.057z M103.872,165.16c1.911-1.118,4.126-1.77,6.496-1.77
	c7.125,0,12.922,5.797,12.922,12.922c0,5.545-3.516,10.271-8.431,12.101c0.345-1.436,0.522-2.896,0.522-4.368
	C115.382,176.625,111.027,169.997,103.872,165.16z M105.382,184.046c0,1.266-0.293,2.536-0.854,3.779
	c-4.196-2.137-7.083-6.49-7.083-11.513c0-1.098,0.153-2.159,0.412-3.178C102.656,176.266,105.382,180.219,105.382,184.046z
	 M103.872,99.15c1.911-1.118,4.127-1.77,6.496-1.77c7.125,0,12.922,5.797,12.922,12.923c0,5.544-3.516,10.27-8.43,12.1
	c0.344-1.436,0.522-2.895,0.522-4.367C115.382,110.615,111.027,103.987,103.872,99.15z M105.382,118.036
	c0,1.267-0.293,2.536-0.854,3.778c-4.196-2.137-7.083-6.489-7.083-11.512c0-1.098,0.153-2.159,0.412-3.178
	C102.656,110.257,105.382,114.209,105.382,118.036z M103.872,33.139c1.911-1.118,4.127-1.77,6.496-1.77
	c7.125,0,12.922,5.797,12.922,12.923c0,5.544-3.516,10.27-8.43,12.1c0.344-1.436,0.522-2.895,0.522-4.367
	C115.382,44.604,111.027,37.976,103.872,33.139z M105.382,52.025c0,1.266-0.293,2.536-0.854,3.779
	c-4.196-2.137-7.083-6.489-7.083-11.512c0-1.098,0.153-2.159,0.412-3.178C102.656,44.246,105.382,48.198,105.382,52.025z
	 M42.87,52.025c0-6.777,8.544-13.943,22.021-16.251v32.475C52.254,66.01,42.87,59.294,42.87,52.025z M42.87,118.036
	c0-6.777,8.544-13.943,22.021-16.251v32.474C52.254,132.021,42.87,125.305,42.87,118.036z M42.87,184.046
	c0-6.777,8.544-13.943,22.021-16.25v32.474C52.254,198.031,42.87,191.314,42.87,184.046z M42.87,250.057
	c0-6.777,8.544-13.943,22.021-16.251v32.475C52.254,264.041,42.87,257.325,42.87,250.057z M42.87,316.067
	c0-6.777,8.544-13.943,22.021-16.251v32.474C52.254,330.052,42.87,323.336,42.87,316.067z M42.87,382.078
	c0-6.777,8.544-13.943,22.021-16.251v32.474C52.254,396.063,42.87,389.347,42.87,382.078z M430.011,477.881H74.891v-6.712H428.29
	c2.761,0,5-2.238,5-5v-43.675c4.358-0.574,8.367-2.268,11.721-4.792v45.179C445.011,471.152,438.282,477.881,430.011,477.881z
	 M413.277,435.065c0,2.762-2.239,5-5,5H84.572c-2.761,0-5-2.238-5-5s2.239-5,5-5h323.705
	C411.038,430.065,413.277,432.304,413.277,435.065z M413.277,451.159c0,2.762-2.239,5-5,5H84.572c-2.761,0-5-2.238-5-5s2.239-5,5-5
	h323.705C411.038,446.159,413.277,448.397,413.277,451.159z M224.005,356.419h135.42c2.761,0,5-2.238,5-5V186.031
	c0-0.235-0.02-0.469-0.052-0.7c-0.006-0.043-0.018-0.085-0.025-0.128c-0.041-0.242-0.101-0.479-0.176-0.713
	c-0.023-0.071-0.045-0.141-0.071-0.211c-0.095-0.254-0.204-0.504-0.34-0.74l-0.021-0.037c-0.004-0.006-0.007-0.012-0.011-0.018
	L296.05,65.771c-0.655-1.141-1.724-1.955-2.955-2.309c-0.025-0.007-0.048-0.018-0.073-0.025c-0.056-0.015-0.115-0.021-0.172-0.035
	c-0.368-0.086-0.747-0.139-1.134-0.139c0,0,0,0,0,0c-1.79,0-3.443,0.956-4.334,2.508l-67.71,117.769
	c-0.122,0.212-0.223,0.433-0.313,0.659c-0.024,0.062-0.041,0.124-0.063,0.187c-0.077,0.219-0.138,0.443-0.183,0.671
	c-0.014,0.069-0.03,0.136-0.041,0.205c-0.04,0.254-0.066,0.511-0.066,0.77v165.388C219.005,354.181,221.244,356.419,224.005,356.419
	z M229.005,346.419V197.737l21.251,20.338V332.52c0,2.762,2.239,5,5,5s5-2.238,5-5V217.464l15.25-22.679l16.428,21.061
	c-0.001,0.032-0.009,0.062-0.009,0.094v116.58c0,2.762,2.239,5,5,5s5-2.238,5-5v-116.58c0-0.093-0.022-0.179-0.027-0.27
	l15.861-23.797l15.861,23.797c-0.005,0.091-0.027,0.178-0.027,0.27v116.58c0,2.762,2.239,5,5,5s5-2.238,5-5v-116.58
	c0-0.052-0.014-0.1-0.015-0.152l10.849-14.624v145.256H229.005z M270.644,114.943h42.143l40.671,70.74l-14.648,19.745
	l-16.892-25.344c-0.927-1.391-2.489-2.227-4.161-2.227s-3.233,0.836-4.161,2.227l-16.992,25.493l-17.458-22.382
	c-0.985-1.264-2.514-1.972-4.119-1.922c-1.602,0.057-3.079,0.877-3.973,2.207l-16.634,24.739l-24.129-23.092L270.644,114.943z
	 M291.715,78.295l15.316,26.648h-30.638L291.715,78.295z"/>
<g>
</g>
<g>
</g>
<g>
</g>
<g>
</g>
<g>
</g>
<g>
</g>
<g>
</g>
<g>
</g>
<g>
</g>
<g>
</g>
<g>
</g>
<g>
</g>
<g>
</g>
<g>
</g>
<g>
</g>
</svg>
