<?xml version="1.0" ?><svg height="512" id="svg2" version="1.1" width="512" xmlns="http://www.w3.org/2000/svg" xmlns:cc="http://creativecommons.org/ns#" xmlns:dc="http://purl.org/dc/elements/1.1/" xmlns:inkscape="http://www.inkscape.org/namespaces/inkscape" xmlns:rdf="http://www.w3.org/1999/02/22-rdf-syntax-ns#" xmlns:sodipodi="http://sodipodi.sourceforge.net/DTD/sodipodi-0.dtd" xmlns:svg="http://www.w3.org/2000/svg"><defs id="defs4"/><g id="layer1" transform="translate(0,-540.36218)"><g id="g3046" transform="matrix(0,-1,1,0,-590.36218,1052.3622)"><g id="g3033" transform="matrix(0.70710678,0.70710678,-0.70710678,0.70710678,807.53337,52.229719)"><path d="m -32.093136,1062.3039 c 7.38381,7.3838 14.76763,14.7676 22.1514404,22.1514 L 240.42284,834.09082 l 17.58815,17.56522 35.38269,-92.68749 -92.6875,35.38268 17.56522,17.58815 z" id="path3036" style="fill:#000000;stroke:none"/></g><g id="g3038" transform="matrix(0.70710678,0.70710678,-0.70710678,0.70710678,468.65417,152.22973)"><path d="m 544.09316,530.42048 c -7.38381,-7.38381 -14.76763,-14.76763 -22.15144,-22.15144 l -250.36453,250.36453 -17.58815,-17.56522 -35.38268,92.6875 92.68749,-35.38269 -17.56522,-17.58815 z" id="path3040" style="fill:#000000;stroke:none"/></g></g><g id="g3016" transform="matrix(-1,0,0,1,502.69953,6.6120369e-6)"/></g></svg>