<?xml version="1.0" encoding="iso-8859-1"?>
<!-- Generator: Adobe Illustrator 16.0.0, SVG Export Plug-In . SVG Version: 6.00 Build 0)  -->
<!DOCTYPE svg PUBLIC "-//W3C//DTD SVG 1.1//EN" "http://www.w3.org/Graphics/SVG/1.1/DTD/svg11.dtd">
<svg version="1.1" id="Capa_1" xmlns="http://www.w3.org/2000/svg" xmlns:xlink="http://www.w3.org/1999/xlink" x="0px" y="0px"
	 width="441.262px" height="441.262px" viewBox="0 0 441.262 441.262" style="enable-background:new 0 0 441.262 441.262;"
	 xml:space="preserve">
<g>
	<path d="M314.393,321.819H127.615v31.759h186.778V321.819z M301.673,342.131h-25.572v-8.864h25.572V342.131z M214.473,85.552
		c0-5.666,4.606-10.271,10.268-10.271c5.669,0,10.276,4.604,10.276,10.271c0,5.664-4.607,10.271-10.276,10.271
		C219.079,95.823,214.473,91.21,214.473,85.552z M281.129,85.552c0-5.666,4.607-10.271,10.271-10.271
		c5.669,0,10.272,4.604,10.272,10.271c0,5.664-4.604,10.271-10.272,10.271C285.736,95.823,281.129,91.21,281.129,85.552z
		 M314.393,238.354H127.615v31.754h186.778V238.354z M301.673,258.661h-25.572v-8.869h25.572V258.661z M353.146,31.058H86.062V406
		h267.084V31.058z M291.4,58.471c14.933,0,27.081,12.148,27.081,27.081c0,14.934-12.148,27.081-27.081,27.081
		c-14.932,0-27.081-12.147-27.081-27.081C264.319,70.619,276.469,58.471,291.4,58.471z M224.74,58.471
		c14.94,0,27.086,12.148,27.086,27.081c0,14.934-12.146,27.081-27.086,27.081c-14.93,0-27.079-12.147-27.079-27.081
		C197.662,70.619,209.811,58.471,224.74,58.471z M331.205,370.388H110.806V305.01h220.399V370.388z M331.205,286.913H110.806
		v-65.368h220.399V286.913z M331.205,202.286H110.806v-65.374h220.399V202.286z M314.393,153.722H127.615v31.753h186.778V153.722z
		 M301.673,172.869h-25.572v-8.87h25.572V172.869z M384.774,0H56.487c-4.646,0-8.405,3.759-8.405,8.405v424.451
		c0,4.646,3.759,8.405,8.405,8.405h328.287c4.646,0,8.404-3.76,8.404-8.405V8.405C393.179,3.759,389.42,0,384.774,0z
		 M376.371,424.451H64.892V16.81h311.479V424.451z"/>
</g>
<g>
</g>
<g>
</g>
<g>
</g>
<g>
</g>
<g>
</g>
<g>
</g>
<g>
</g>
<g>
</g>
<g>
</g>
<g>
</g>
<g>
</g>
<g>
</g>
<g>
</g>
<g>
</g>
<g>
</g>
</svg>
