<?xml version="1.0" encoding="iso-8859-1"?>
<!-- Generator: Adobe Illustrator 16.0.0, SVG Export Plug-In . SVG Version: 6.00 Build 0)  -->
<!DOCTYPE svg PUBLIC "-//W3C//DTD SVG 1.1//EN" "http://www.w3.org/Graphics/SVG/1.1/DTD/svg11.dtd">
<svg version="1.1" id="Capa_1" xmlns="http://www.w3.org/2000/svg" xmlns:xlink="http://www.w3.org/1999/xlink" x="0px" y="0px"
	 width="345.324px" height="345.324px" viewBox="0 0 345.324 345.324" style="enable-background:new 0 0 345.324 345.324;"
	 xml:space="preserve">
<g>
	<g>
		<g>
			<path d="M64.404,166.285h44.763v-44.763H64.404V166.285z M87.487,134.078c5.908,0,10.736,4.819,10.736,10.737
				c0,5.915-4.828,10.733-10.736,10.733c-5.921,0-10.737-4.813-10.737-10.733C76.756,138.897,81.572,134.078,87.487,134.078z"/>
		</g>
		<g>
			<rect x="165.486" y="134.078" width="24.908" height="139.645"/>
		</g>
		<g>
			<rect x="211.309" y="134.078" width="24.908" height="139.645"/>
		</g>
		<g>
			<path d="M317.372,71.316c-0.03-0.234,0.012-0.469-0.078-0.676L292.409,2.354C291.894,0.937,290.536,0,289.035,0H66.963
				c-1.327,0-2.559,0.739-3.174,1.925L28.211,70.208c-0.177,0.346-0.189,0.727-0.252,1.108c-0.669,0.651-1.105,1.549-1.105,2.563
				v267.877c0,1.97,1.609,3.567,3.585,3.567h284.459c1.981,0,3.573-1.598,3.573-3.567V73.886
				C318.471,72.865,318.05,71.974,317.372,71.316z M87.487,194.231c-2.564,0-4.642-2.096-4.642-4.654
				c0-2.558,2.072-4.629,4.642-4.629c2.558,0,4.642,2.071,4.642,4.629C92.129,192.136,90.045,194.231,87.487,194.231z
				 M116.325,169.87c0,1.976-1.604,3.572-3.585,3.572H60.826c-1.979,0-3.585-1.597-3.585-3.572v-51.933
				c0-1.976,1.597-3.579,3.585-3.579h51.915c1.981,0,3.585,1.598,3.585,3.579V169.87z M197.563,280.881h-39.241V126.915h39.241
				V280.881z M243.374,280.881H204.14V126.915h39.234V280.881z M288.969,280.881h-39.241V126.915h39.241V280.881z M37.293,70.067
				L69.146,7.158h217.392l22.277,62.909H37.293z"/>
		</g>
		<g>
			<rect x="256.886" y="134.078" width="24.913" height="139.645"/>
		</g>
	</g>
</g>
<g>
</g>
<g>
</g>
<g>
</g>
<g>
</g>
<g>
</g>
<g>
</g>
<g>
</g>
<g>
</g>
<g>
</g>
<g>
</g>
<g>
</g>
<g>
</g>
<g>
</g>
<g>
</g>
<g>
</g>
</svg>
