<?xml version="1.0" encoding="utf-8"?>
<!-- Generated by IcoMoon.io -->
<!DOCTYPE svg PUBLIC "-//W3C//DTD SVG 1.1//EN" "http://www.w3.org/Graphics/SVG/1.1/DTD/svg11.dtd">
<svg version="1.1" xmlns="http://www.w3.org/2000/svg" xmlns:xlink="http://www.w3.org/1999/xlink" width="512" height="512" viewBox="0 0 512 512">
<g>
</g>
	<path d="M325.192 226.744h-138.383v-20.849l10.885-16.353v-7.465h-10.885v-109.179h138.383v109.179h-13.865v7.465l13.865 16.353v20.849zM481.003 439.101h-138.936v-20.839l11.418-16.404v-7.414h-11.418v-109.159h138.926v109.159h-14.377v7.424l14.377 16.404v20.828h0.010zM326.687 310.077h-27.279l9.431-10.445-32.727-32.727-10.445 9.431v-26.788h27.771l-9.411 8.94 33.25 32.717 9.411-8.919v27.791zM246.333 249.549v27.28l-10.424-9.431-32.738 33.239 8.919 9.442h-26.788v-27.289l9.421 9.442 32.758-33.27-9.441-9.411h28.293zM300.411 350.259l-20.347 18.882v-13.425h-46.623v13.896l-21.832-19.364 21.832-19.323v13.363h46.623v-13.363l20.347 19.333zM169.923 439.101h-138.926v-20.839l11.418-16.404v-7.414h-11.418v-109.159h138.916v109.159h-13.886v7.424l13.886 16.404v20.828h0.010zM311.327 158.75v-71.936c0-2.98-1.003-4.475-3.963-4.475h-102.728c-2.959 0-4.444 1.495-4.444 4.475v71.936c0 2.97 1.485 4.485 4.444 4.485h102.728c2.969-0.010 3.963-1.516 3.963-4.485v0zM467.108 371.098v-71.916c0-3-1.485-4.475-3.963-4.475h-102.717c-2.969 0-4.956 1.474-4.956 4.475v71.916c0 2.98 1.986 4.464 4.956 4.464h102.717c2.488 0 3.963-1.485 3.963-4.464v0zM156.027 371.098v-71.916c0-3-1.004-4.475-3.983-4.475h-102.697c-2.98 0-4.465 1.474-4.465 4.475v71.916c0 2.98 1.485 4.464 4.465 4.464h102.697c2.99 0 3.983-1.485 3.983-4.464z" fill="#000000" />
</svg>
