<?xml version="1.0" encoding="iso-8859-1"?>
<!-- Generator: Adobe Illustrator 18.0.0, SVG Export Plug-In . SVG Version: 6.00 Build 0)  -->
<!DOCTYPE svg PUBLIC "-//W3C//DTD SVG 1.1//EN" "http://www.w3.org/Graphics/SVG/1.1/DTD/svg11.dtd">
<svg version="1.1" id="Capa_1" xmlns="http://www.w3.org/2000/svg" xmlns:xlink="http://www.w3.org/1999/xlink" x="0px" y="0px"
	 viewBox="0 0 60 60" style="enable-background:new 0 0 60 60;" xml:space="preserve">
<g>
	<path d="M37.542,52.33c0.141,0.401,0.52,0.67,0.944,0.67H49.88c0.437,0,0.822-0.283,0.954-0.699l3.12-9.892
		c0.117-0.374,0.006-0.782-0.285-1.044l-9-8.108c-0.379-0.342-0.953-0.343-1.335-0.003l-9,8.029
		c-0.302,0.27-0.411,0.694-0.278,1.076L37.542,52.33z M43.997,35.343l7.855,7.077L49.146,51h-9.95l-3.031-8.669L43.997,35.343z"/>
	<path d="M59,0H1C0.447,0,0,0.448,0,1v58c0,0.552,0.447,1,1,1h58c0.553,0,1-0.448,1-1V1C60,0.448,59.553,0,59,0z M58,58H2V2h56V58z"
		/>
	<path d="M7,26h18c0.553,0,1-0.448,1-1V7c0-0.552-0.447-1-1-1H7C6.447,6,6,6.448,6,7v18C6,25.552,6.447,26,7,26z M8,8h16v16H8V8z"/>
	<path d="M35,26h18c0.347,0,0.668-0.18,0.851-0.474c0.183-0.295,0.199-0.663,0.044-0.973l-9-18c-0.34-0.678-1.449-0.678-1.789,0
		l-9,18c-0.155,0.31-0.139,0.678,0.044,0.973C34.332,25.82,34.653,26,35,26z M44,9.236L51.382,24H36.618L44,9.236z"/>
	<path d="M16,54c5.514,0,10-4.486,10-10s-4.486-10-10-10S6,38.486,6,44S10.486,54,16,54z M16,36c4.411,0,8,3.589,8,8s-3.589,8-8,8
		s-8-3.589-8-8S11.589,36,16,36z"/>
</g>
<g>
</g>
<g>
</g>
<g>
</g>
<g>
</g>
<g>
</g>
<g>
</g>
<g>
</g>
<g>
</g>
<g>
</g>
<g>
</g>
<g>
</g>
<g>
</g>
<g>
</g>
<g>
</g>
<g>
</g>
</svg>
