<?xml version="1.0" encoding="iso-8859-1"?>
<!-- Generator: Adobe Illustrator 19.0.0, SVG Export Plug-In . SVG Version: 6.00 Build 0)  -->
<svg version="1.1" id="Layer_1" xmlns="http://www.w3.org/2000/svg" xmlns:xlink="http://www.w3.org/1999/xlink" x="0px" y="0px"
	 viewBox="0 0 512 512" style="enable-background:new 0 0 512 512;" xml:space="preserve">
<g>
	<g>
		<path d="M509.608,111.328L400.672,2.392C399.138,0.861,397.06,0,394.894,0H8.17C3.658,0,0,3.657,0,8.17v337.702
			c0,4.513,3.658,8.17,8.17,8.17h495.66c4.513,0,8.17-3.657,8.17-8.17V117.106C512,114.94,511.139,112.862,509.608,111.328z
			 M403.064,27.894l81.042,81.042h-81.042V27.894z M394.894,125.277h35.404v44.482h-239.66v0V81.702h196.085v35.404
			C386.723,121.62,390.38,125.277,394.894,125.277z M174.298,186.099v26.628c0,4.513,3.658,8.17,8.17,8.17s8.17-3.657,8.17-8.17
			v-26.628h239.66v88.057H81.702v-88.057H174.298z M81.702,169.759L81.702,169.759V81.702h92.596v88.056H81.702z M495.66,337.702
			H16.34V16.34h370.383v49.021H190.638V40.851c0-4.513-3.658-8.17-8.17-8.17s-8.17,3.657-8.17,8.17v24.511H81.702V40.851
			c0-4.513-3.658-8.17-8.17-8.17s-8.17,3.657-8.17,8.17v24.511H40.851c-4.512,0-8.17,3.657-8.17,8.17s3.658,8.17,8.17,8.17h24.511
			v88.056H40.851c-4.512,0-8.17,3.657-8.17,8.17c0,4.513,3.658,8.17,8.17,8.17h24.511v88.058H39.399c-4.512,0-8.17,3.657-8.17,8.17
			c0,4.513,3.658,8.17,8.17,8.17h25.963v24.511c0,4.513,3.658,8.17,8.17,8.17s8.17-3.657,8.17-8.17v-24.511h348.596v24.511
			c0,4.513,3.657,8.17,8.17,8.17s8.17-3.657,8.17-8.17v-24.511h23.059c4.513,0,8.17-3.657,8.17-8.17s-3.657-8.17-8.17-8.17h-23.059
			v-88.057h23.059c4.513,0,8.17-3.657,8.17-8.17s-3.657-8.17-8.17-8.17h-23.059v-44.482h49.021V337.702z"/>
	</g>
</g>
<g>
	<g>
		<path d="M402.156,204.557H217.328c-4.512,0-8.17,3.657-8.17,8.17s3.658,8.17,8.17,8.17h184.829c4.513,0,8.17-3.657,8.17-8.17
			S406.67,204.557,402.156,204.557z"/>
	</g>
</g>
<g>
	<g>
		<path d="M309.923,239.358h-92.596c-4.512,0-8.17,3.657-8.17,8.17c0,4.513,3.658,8.17,8.17,8.17h92.596
			c4.513,0,8.17-3.657,8.17-8.17C318.094,243.015,314.437,239.358,309.923,239.358z"/>
	</g>
</g>
<g>
	<g>
		<path d="M446.638,381.277H111.66c-1.382,0-2.742,0.351-3.951,1.02L54.6,411.646c-0.037,0.021-50.381,27.842-50.381,27.842
			C1.616,440.926,0,443.665,0,446.638c0,2.973,1.616,5.713,4.219,7.151l50.344,27.821c0.037,0.021,53.146,29.37,53.146,29.37
			c1.209,0.668,2.569,1.02,3.951,1.02h334.98c17.458,0,33.873-6.799,46.217-19.144c12.346-12.345,19.144-28.759,19.143-46.217
			C512,410.598,482.679,381.277,446.638,381.277z M50.308,460.59l-25.246-13.951l25.246-13.951V460.59z M103.489,489.98
			l-36.841-20.359v-45.963l36.841-20.36V489.98z M373.106,438.468H198.809c-4.512,0-8.17,3.657-8.17,8.17s3.658,8.17,8.17,8.17
			h174.298v40.851H119.83v-40.851h46.298c4.512,0,8.17-3.657,8.17-8.17s-3.658-8.17-8.17-8.17H119.83v-40.851h253.277V438.468z
			 M405.787,495.66h-16.34v-98.043h16.34V495.66z M481.302,481.301c-9.258,9.26-21.569,14.359-34.662,14.359h-24.512v-98.043h24.511
			c27.03,0,49.021,21.991,49.021,49.021C495.66,459.732,490.56,472.042,481.302,481.301z"/>
	</g>
</g>
<g>
</g>
<g>
</g>
<g>
</g>
<g>
</g>
<g>
</g>
<g>
</g>
<g>
</g>
<g>
</g>
<g>
</g>
<g>
</g>
<g>
</g>
<g>
</g>
<g>
</g>
<g>
</g>
<g>
</g>
</svg>
